<svg id="Layer_1" data-name="Layer 1" xmlns="http://www.w3.org/2000/svg" viewBox="0 0 79.75 45.47"><defs><style>.cls-1{fill:#1d1d1b;}</style></defs><path class="cls-1" d="M49,17.07a4.33,4.33,0,0,1-.93.84,6.83,6.83,0,0,1-1.4.78,10.42,10.42,0,0,1-1.81.56,10.55,10.55,0,0,1-2.16.21,6.92,6.92,0,0,1-2.82-.55,5.94,5.94,0,0,1-2.15-1.6,7.33,7.33,0,0,1-1.37-2.55,11.39,11.39,0,0,1-.48-3.44V8.83a10.72,10.72,0,0,1,.5-3.43,7.66,7.66,0,0,1,1.41-2.57,6,6,0,0,1,2.11-1.61A6.26,6.26,0,0,1,42.55.67a8.45,8.45,0,0,1,2.7.39,5.38,5.38,0,0,1,1.94,1.12A5.18,5.18,0,0,1,48.43,4,8.4,8.4,0,0,1,49,6.34H45.57a3.66,3.66,0,0,0-.85-2.11,2.72,2.72,0,0,0-2.08-.71,2.43,2.43,0,0,0-1.26.34,3.11,3.11,0,0,0-1,1,5.92,5.92,0,0,0-.68,1.66,9.09,9.09,0,0,0-.25,2.28v2.51a7.64,7.64,0,0,0,.85,3.93,2.87,2.87,0,0,0,2.58,1.37,5.55,5.55,0,0,0,.82-.06,4.33,4.33,0,0,0,.75-.18,3.21,3.21,0,0,0,.62-.26,1.24,1.24,0,0,0,.41-.3V12.5h-3V9.86H49Z"/><path class="cls-1" d="M64.07.92l0,12.12a8,8,0,0,1-.43,2.73,5.49,5.49,0,0,1-1.21,2,5.15,5.15,0,0,1-2,1.25,7.38,7.38,0,0,1-2.62.43A6.78,6.78,0,0,1,55.39,19a5.18,5.18,0,0,1-1.91-1.24,5.75,5.75,0,0,1-1.22-2A8,8,0,0,1,51.82,13l0-12.12h3.53V13A4.71,4.71,0,0,0,56,15.72a2.12,2.12,0,0,0,1.85.9,2.35,2.35,0,0,0,2-.9,4.53,4.53,0,0,0,.7-2.68V.92Z"/><path class="cls-1" d="M68.11.92H78.68V3.77H75.12v12.6h3.56v2.84H68.11V16.37h3.48V3.77H68.11Z"/><path class="cls-1" d="M36.37,44.94V26.64h4.74a8.37,8.37,0,0,1,3.3.63A7.31,7.31,0,0,1,46.93,29a7.7,7.7,0,0,1,1.62,2.66,9.73,9.73,0,0,1,.57,3.39v1.51a9.63,9.63,0,0,1-.57,3.38A7.77,7.77,0,0,1,47,42.59a7.15,7.15,0,0,1-2.48,1.73,8,8,0,0,1-3.19.62Zm3.56-15.43V42.1h1.35a4,4,0,0,0,1.78-.38,3.68,3.68,0,0,0,1.33-1.09,5,5,0,0,0,.84-1.74,8.74,8.74,0,0,0,.29-2.33V35a8.27,8.27,0,0,0-.29-2.24A4.86,4.86,0,0,0,44.39,31,3.89,3.89,0,0,0,43,29.91a4.25,4.25,0,0,0-1.9-.4Z"/><path class="cls-1" d="M63.14,36.92H55.63v5.16h8.78v2.86H52.09V26.64H64.37v2.88H55.63v4.61h7.51Z"/><path class="cls-1" d="M71.66,26.64l1.73,6.88,2-6.88h4.38v18.3H76.51V39.52L76.66,31l-2.4,7.94H72.51l-2.14-7.6.15,8.21v5.42H67.28V26.64Z"/><path class="cls-1" d="M15.13,45.47H12.45a.66.66,0,0,1-.67-.66V42.64a.67.67,0,0,1,.67-.67h6.77V40.34a.67.67,0,0,1,1.34,0v2.3a.67.67,0,0,1-.67.66H13.12v.84h2a.67.67,0,0,1,.67.67A.66.66,0,0,1,15.13,45.47Z"/><path class="cls-1" d="M17,41H9.94a.67.67,0,0,1-.67-.66V37.82a.67.67,0,0,1,.67-.66h9V36H12a.67.67,0,0,1,0-1.34h7.56a.67.67,0,0,1,.67.67v2.51a.67.67,0,0,1-.67.67h-9v1.18H17A.67.67,0,0,1,17,41Z"/><path class="cls-1" d="M9.94,34.64A.67.67,0,0,1,9.27,34V32.8a.67.67,0,0,1,.67-.67h9V30.27H15.13a15.12,15.12,0,0,1-13.35-8A.66.66,0,0,1,3,21.63a13.79,13.79,0,0,0,12.18,7.31h4.45a.66.66,0,0,1,.67.66v3.2a.66.66,0,0,1-.67.66h-9V34A.67.67,0,0,1,9.94,34.64Z"/><path class="cls-1" d="M.67,15.8A.67.67,0,0,1,0,15.13,15.15,15.15,0,0,1,15.13,0a14.75,14.75,0,0,1,3,.31.65.65,0,0,1,.52.78.65.65,0,0,1-.78.52,14.43,14.43,0,0,0-2.79-.28,13.81,13.81,0,0,0-13.8,13.8A.67.67,0,0,1,.67,15.8Z"/><path class="cls-1" d="M22.93,28a.68.68,0,0,1-.56-.31.66.66,0,0,1,.2-.92A13.79,13.79,0,0,0,25.38,5.89.67.67,0,0,1,25.43,5a.66.66,0,0,1,.94,0,15.12,15.12,0,0,1-3.08,22.88A.66.66,0,0,1,22.93,28Z"/><path class="cls-1" d="M9.94,25.21a.67.67,0,0,1-.33-.08A11.42,11.42,0,1,1,26,11.57a.66.66,0,0,1-.42.84.67.67,0,0,1-.84-.43A10.09,10.09,0,1,0,10.26,24a.67.67,0,0,1,.26.91A.66.66,0,0,1,9.94,25.21Z"/><path class="cls-1" d="M15.13,22.9a7.78,7.78,0,0,1-7.76-7.77,7.89,7.89,0,0,1,.94-3.71.67.67,0,0,1,.91-.26.66.66,0,0,1,.26.9,6.44,6.44,0,0,0,10.75,7,.65.65,0,0,1,.93-.12.66.66,0,0,1,.13.93A7.75,7.75,0,0,1,15.13,22.9Z"/><path class="cls-1" d="M11.87,17.65a.68.68,0,0,1-.58-.33,4.5,4.5,0,0,1-.57-2.19A4.42,4.42,0,0,1,18.26,12a.66.66,0,0,1,0,.94.68.68,0,0,1-1,0,3.08,3.08,0,0,0-5.26,2.18,3.12,3.12,0,0,0,.4,1.53.67.67,0,0,1-.25.91A.62.62,0,0,1,11.87,17.65Z"/><circle class="cls-1" cx="15.13" cy="15.23" r="0.79"/></svg>