<svg id="Layer_1" data-name="Layer 1" xmlns="http://www.w3.org/2000/svg" viewBox="0 0 91.13 73.84"><defs><style>.cls-1{fill:#1d1d1b;}</style></defs><path class="cls-1" d="M13.13,71.46a5.65,5.65,0,0,1-.93.84,7.65,7.65,0,0,1-1.4.77A9.74,9.74,0,0,1,9,73.63a10.55,10.55,0,0,1-2.16.21A6.84,6.84,0,0,1,4,73.29a5.86,5.86,0,0,1-2.15-1.6A7.25,7.25,0,0,1,.48,69.14,11.39,11.39,0,0,1,0,65.7V63.21a10.71,10.71,0,0,1,.51-3.43,7.66,7.66,0,0,1,1.41-2.57A6,6,0,0,1,4,55.6a6.2,6.2,0,0,1,2.63-.55,8.34,8.34,0,0,1,2.69.39,5,5,0,0,1,3.18,2.91,8.56,8.56,0,0,1,.59,2.38H9.67a3.66,3.66,0,0,0-.84-2.12,2.77,2.77,0,0,0-2.08-.71,2.42,2.42,0,0,0-1.26.35,3,3,0,0,0-1,1,5.46,5.46,0,0,0-.67,1.65,9.2,9.2,0,0,0-.25,2.28V65.7a7.55,7.55,0,0,0,.85,3.93A2.84,2.84,0,0,0,7,71a5.55,5.55,0,0,0,.82-.06,4.12,4.12,0,0,0,.75-.18,3.76,3.76,0,0,0,.63-.25,1.57,1.57,0,0,0,.41-.31V66.88h-3V64.24h6.55Z"/><path class="cls-1" d="M28.18,55.3V67.42a8.24,8.24,0,0,1-.42,2.73,5.55,5.55,0,0,1-1.22,2,5.18,5.18,0,0,1-1.95,1.24,7.35,7.35,0,0,1-2.62.43,6.78,6.78,0,0,1-2.49-.43,5.1,5.1,0,0,1-1.9-1.24,5.58,5.58,0,0,1-1.23-2,8,8,0,0,1-.43-2.74V55.3h3.53V67.42a4.76,4.76,0,0,0,.65,2.68A2.12,2.12,0,0,0,22,71a2.32,2.32,0,0,0,2-.9,4.44,4.44,0,0,0,.7-2.68V55.3Z"/><path class="cls-1" d="M32.21,55.3H42.79v2.85H39.22v12.6h3.57v2.84H32.21V70.75h3.48V58.15H32.21Z"/><path class="cls-1" d="M47.75,73.59V55.3h4.74a8.46,8.46,0,0,1,3.29.62,7.29,7.29,0,0,1,2.53,1.74,7.66,7.66,0,0,1,1.62,2.65,9.73,9.73,0,0,1,.57,3.39v1.51a9.73,9.73,0,0,1-.57,3.39,8,8,0,0,1-1.6,2.65A7.15,7.15,0,0,1,55.85,73a8,8,0,0,1-3.19.61Zm3.56-15.43V70.75h1.35a4.08,4.08,0,0,0,1.78-.37,3.71,3.71,0,0,0,1.33-1.1,5.22,5.22,0,0,0,.84-1.74,8.68,8.68,0,0,0,.29-2.33V63.68a8.21,8.21,0,0,0-.29-2.24,5,5,0,0,0-.84-1.74,3.69,3.69,0,0,0-1.38-1.13,4.25,4.25,0,0,0-1.9-.41Z"/><path class="cls-1" d="M74.52,65.58H67v5.16h8.78v2.85H63.47V55.3H75.75v2.88H67v4.61h7.51Z"/><path class="cls-1" d="M83,55.3l1.73,6.87,2-6.87h4.39V73.59H87.89V68.18L88,59.62l-2.4,7.94H83.89L81.74,60l.16,8.22v5.41H78.65V55.3Z"/><path class="cls-1" d="M45.56,45.48H42.88a.67.67,0,0,1-.67-.67V42.64a.67.67,0,0,1,.67-.67h6.77V40.34a.67.67,0,0,1,1.34,0v2.3a.67.67,0,0,1-.67.66H43.55v.84h2a.67.67,0,1,1,0,1.34Z"/><path class="cls-1" d="M47.46,41H40.37a.67.67,0,0,1-.67-.66V37.82a.67.67,0,0,1,.67-.66h9V36h-6.9a.67.67,0,1,1,0-1.34H50a.67.67,0,0,1,.67.67v2.51a.67.67,0,0,1-.67.67H41v1.18h6.43a.67.67,0,1,1,0,1.33Z"/><path class="cls-1" d="M40.37,34.64A.67.67,0,0,1,39.7,34V32.8a.67.67,0,0,1,.67-.67h9V30.27H45.56a15.12,15.12,0,0,1-13.35-8,.66.66,0,0,1,1.17-.63,13.79,13.79,0,0,0,12.18,7.31H50a.66.66,0,0,1,.66.66v3.2a.66.66,0,0,1-.66.66H41V34A.66.66,0,0,1,40.37,34.64Z"/><path class="cls-1" d="M31.1,15.8a.67.67,0,0,1-.67-.67A15.15,15.15,0,0,1,45.56,0a14.75,14.75,0,0,1,3,.31.65.65,0,0,1,.52.78.65.65,0,0,1-.78.52,14.43,14.43,0,0,0-2.79-.28,13.81,13.81,0,0,0-13.8,13.8A.67.67,0,0,1,31.1,15.8Z"/><path class="cls-1" d="M53.37,28A.67.67,0,0,1,53,26.76,13.79,13.79,0,0,0,55.81,5.89a.67.67,0,0,1,0-.94.66.66,0,0,1,.94,0,15.12,15.12,0,0,1-3.08,22.88A.66.66,0,0,1,53.37,28Z"/><path class="cls-1" d="M40.37,25.21a.67.67,0,0,1-.33-.08A11.42,11.42,0,1,1,56.41,11.57a.66.66,0,0,1-.42.84.67.67,0,0,1-.84-.43A10.09,10.09,0,1,0,40.69,24a.67.67,0,0,1,.26.91A.66.66,0,0,1,40.37,25.21Z"/><path class="cls-1" d="M45.56,22.9a7.78,7.78,0,0,1-7.76-7.77,7.89,7.89,0,0,1,.94-3.71.67.67,0,0,1,.91-.26.66.66,0,0,1,.26.9,6.44,6.44,0,0,0,10.75,7,.65.65,0,0,1,.93-.12.66.66,0,0,1,.13.93A7.75,7.75,0,0,1,45.56,22.9Z"/><path class="cls-1" d="M42.3,17.65a.65.65,0,0,1-.57-.33,4.42,4.42,0,0,1,7-5.31.66.66,0,0,1,0,.94.68.68,0,0,1-.95,0,3.08,3.08,0,0,0-5.26,2.18,3.12,3.12,0,0,0,.4,1.53.66.66,0,0,1-.25.91A.62.62,0,0,1,42.3,17.65Z"/><circle class="cls-1" cx="45.56" cy="15.23" r="0.79"/></svg>